<svg width="50" height="50" viewBox="0 0 50 50" fill="none" xmlns="http://www.w3.org/2000/svg">
<path fill-rule="evenodd" clip-rule="evenodd" d="M25 50C38.8071 50 50 38.8071 50 25C50 11.1929 38.8071 0 25 0C11.1929 0 0 11.1929 0 25C0 38.8071 11.1929 50 25 50ZM37.7071 23.2929L31.3431 16.9289C30.9526 16.5384 30.3195 16.5384 29.9289 16.9289C29.5384 17.3195 29.5384 17.9526 29.9289 18.3431L34.5858 23H12V25H34.5858L29.9289 29.6569C29.5384 30.0474 29.5384 30.6805 29.9289 31.0711C30.3195 31.4616 30.9526 31.4616 31.3431 31.0711L37.7071 24.7071C38.0976 24.3166 38.0976 23.6834 37.7071 23.2929Z" fill="#FEB8FE"/>
</svg>
