<svg width="130" height="130" viewBox="0 0 130 130" fill="none" xmlns="http://www.w3.org/2000/svg">
<path fill-rule="evenodd" clip-rule="evenodd" d="M129 65C129 100.346 100.346 129 65 129C29.6538 129 1 100.346 1 65C1 29.6538 29.6538 1 65 1C100.346 1 129 29.6538 129 65ZM130 65C130 100.899 100.899 130 65 130C29.1015 130 0 100.899 0 65C0 29.1015 29.1015 0 65 0C100.899 0 130 29.1015 130 65ZM64.1392 17.9515C65.5823 16.0467 69.6574 9.17257 69.8294 8.35293C69.9832 7.61891 70.1969 7.37159 70.4549 7.62961C70.9673 8.14208 69.8263 10.4849 66.954 14.8196L64.7226 18.187L66.1074 18.3074C68.0558 18.4771 68.8402 19.5107 68.9076 21.999C68.9591 23.9121 68.8719 24.1222 67.7506 24.786C66.5402 25.503 66.5347 25.5018 65.1744 24.3663C63.92 23.3192 63.811 23.0513 63.811 21.0204C63.811 18.8762 63.7706 18.7942 62.4091 18.1802C60.6779 17.3998 59.4306 17.787 57.9297 19.5706C56.8489 20.8551 56.6868 21.5162 56.8584 23.9339C57.0498 26.629 57.3328 26.8066 60.9692 26.5113C62.75 26.3667 64.6326 26.4095 65.1522 26.606L66.0975 26.9635L65.0416 27.7939C63.5336 28.9797 61.2629 29.2742 59.4532 28.518C57.676 27.7756 56.5017 27.74 54.4169 28.3646C53.0852 28.7633 51.0441 30.5215 51.4459 30.9238C51.5181 30.9955 52.1895 30.8735 52.9378 30.6527C53.6865 30.4315 58.6685 30.1042 64.0092 29.9254C75.0263 29.5568 75.278 29.6052 77.985 32.6011C79.7384 34.542 79.9956 35.7433 80.0325 42.1656C80.0602 46.9728 80.0352 47.1235 79.1922 47.2435C77.9465 47.4207 77.1824 45.6939 76.5026 41.168C76.1911 39.092 75.8233 37.211 75.6858 36.9878C75.5471 36.7639 74.7262 37.3877 73.8499 38.3833C72.9784 39.3738 72.0212 40.1839 71.7228 40.1839C71.4247 40.1839 70.4144 39.2129 69.4775 38.0262C68.5409 36.8396 67.5465 35.8586 67.2675 35.8463C66.9889 35.8341 65.7012 36.3592 64.4055 37.0132C61.169 38.6469 59.7552 38.5728 56.875 36.6168C55.1498 35.4453 54.1419 35.0315 53.0127 35.0315C51.2062 35.0315 50.5336 34.4778 50.5336 32.9911C50.5336 31.9475 50.4828 31.9198 49.3164 32.3264C48.6466 32.5599 47.9459 33.1536 47.7584 33.6463C47.5713 34.1385 47.521 38.1749 47.647 42.6155L47.8757 50.6897L53.069 50.0191C58.3328 49.3398 78.1934 49.0588 80.1343 49.6367C82.8505 50.4448 84.1378 53.5164 84.3126 59.6046C84.4144 63.1428 84.3716 63.377 83.6063 63.4864C82.4509 63.6517 81.6927 62.6359 80.2635 59.0101C78.7329 55.1264 78.0654 54.0555 77.1784 54.0578C76.8019 54.059 75.2455 54.7023 73.7195 55.4878C71.1667 56.8017 70.7367 56.9012 68.3317 56.7324C66.6738 56.6158 64.8811 56.1652 63.4285 55.5005C60.4774 54.1494 59.9237 54.1783 57.9325 55.7871C55.6801 57.6067 54.7911 58.0193 53.1201 58.0193C50.0897 58.0193 46.9716 55.3574 46.9681 52.7678C46.9673 52.1685 46.8686 51.6778 46.7485 51.6778C46.1255 51.6778 44.2555 52.9223 44.0419 53.4792C43.9067 53.8319 43.7958 56.5932 43.7958 59.6149V65.109L47.8583 64.939C50.0928 64.8451 60.0121 64.683 69.9012 64.5787C86.3222 64.4052 89.2817 64.3552 90.5552 65.7957C90.8523 66.1317 91.0576 66.5489 91.3207 67.0646C92.5533 69.4803 93.7348 74.1995 93.7348 76.706C93.7348 79.4296 93.4732 80.2144 92.5648 80.2144C91.5034 80.2144 90.7131 79.0381 90.1677 76.6473C89.01 71.5706 88.3105 71.0411 85.3046 72.9637C84.0387 73.7735 82.9971 74.0739 81.0519 74.1908C78.6956 74.3323 78.2386 74.2201 75.7012 72.8805C71.7533 70.7957 70.9214 70.8655 66.2283 73.6748L62.3041 76.0235L58.896 75.9747C55.3186 75.9236 53.3694 75.3105 49.9605 73.1643C47.97 71.911 46.1437 71.9356 43.6297 73.2499C41.1926 74.5241 38.5969 74.6192 37.4543 73.4766C37.0183 73.0406 36.6616 72.5127 36.6616 72.303C36.6616 71.5123 38.505 70.2532 40.5196 69.6674C42.6285 69.0542 43.3994 68.2774 43.3994 66.7649C43.3994 65.7844 43.0748 65.7642 40.0301 66.5573C37.0338 67.3377 35.2304 68.7078 34.6502 70.6455C34.1924 72.1734 34.253 81.902 34.7231 82.3717C34.8559 82.5045 36.5502 82.4387 38.4883 82.2262C40.4265 82.0134 52.7134 81.7895 65.7927 81.728C90.3346 81.6127 91.545 81.6725 96.5825 83.2476C98.435 83.8267 98.4401 83.8334 98.6478 85.8857C98.7624 87.0172 98.959 90.5292 99.085 93.69C99.3498 100.326 99.8801 104.222 100.687 105.459C101.11 106.107 101.738 106.367 103.143 106.478L105.031 106.627L103.011 106.698C99.5182 106.822 99.0731 105.628 98.4588 94.4827C98.0124 86.3871 97.9683 84.7724 97.1778 84.2134C96.9352 84.0418 96.6221 83.9697 96.2056 83.8401C92.6357 82.7304 90.5775 82.529 80.8537 82.3388C69.7621 82.1224 37.0385 82.7446 35.5717 83.2004C34.7346 83.4604 34.6799 83.6935 34.6799 86.9986V90.5193H36.0191C36.7559 90.5193 38.3714 90.983 39.6096 91.5498C42.3039 92.7832 43.2896 92.6766 47.6795 90.6758C51.6588 88.8626 53.43 88.469 54.4367 89.1741C54.8628 89.4725 55.8719 90.9228 56.6788 92.3971C58.5868 95.8822 60.5087 98.2135 61.9748 98.8207C63.767 99.563 65.3623 98.5844 70.7565 93.4344C76.7868 87.6771 77.0254 87.6379 81.2381 91.723L84.1144 94.512L86.1833 92.8129C89.6174 89.9924 91.1041 88.7362 92.2004 89.015C93.0818 89.2392 93.7109 90.4557 94.8969 92.6492C97.0145 96.5659 97.2741 97.7434 96.3205 99.1048C95.2892 100.578 90.616 101.03 68.1708 101.83C41.166 102.794 35.2043 102.662 34.1904 101.081C34.0303 100.83 33.8912 98.4857 33.8813 95.8699C33.8571 89.5538 33.1912 90.6275 32.5266 98.0533C31.8786 105.298 30.9499 106.907 28.9571 104.238C28.1985 103.222 28.1403 102.601 28.1403 95.5437C28.1403 85.4814 28.7332 83.7763 32.5 83.0035L33.6891 82.7597L33.8932 76.2355C34.0053 72.647 34.2495 69.3947 34.435 69.0071C34.9546 67.9239 38.1784 66.2128 40.6139 65.7273L42.8049 65.291L43.0031 59.3359C43.2199 52.8248 43.3709 52.3774 45.6784 51.4131L46.9665 50.8744V33.1072L48.0108 32.286C48.5851 31.8342 49.3548 31.4644 49.7211 31.4644C50.0936 31.4644 50.6826 30.8441 51.0587 30.0554C51.7594 28.5854 53.0991 27.7986 55.7427 27.3028C57.1616 27.0369 57.177 27.0139 56.6372 25.9786C55.9103 24.5859 55.9325 21.4096 56.6792 19.9661C57.0074 19.3316 58.087 18.3368 59.0787 17.7557C60.8781 16.7011 60.8852 16.7003 62.4496 17.4058C63.3116 17.7946 64.0722 18.0403 64.1392 17.9515ZM68.2742 21.7814C68.1577 20.7473 67.9084 19.7616 67.7201 19.5908C67.2433 19.1576 65.497 18.8251 64.9009 19.0538C64.2624 19.2987 64.2719 22.3398 64.9136 23.1757C65.803 24.3338 66.9948 24.7512 67.778 24.1785C68.3459 23.7631 68.4442 23.2895 68.2742 21.7814ZM59.8468 28.0404C60.949 28.4633 62.9608 28.2984 64.0092 27.6992C64.9513 27.1605 64.8831 27.1324 62.622 27.1249C60.0743 27.1161 58.657 27.5838 59.8468 28.0404ZM79.3769 41.5711C79.2374 35.2546 78.7654 33.8155 76.1329 31.6836C74.7116 30.5322 74.4532 30.4712 70.8104 30.422C65.4748 30.3499 54.1391 30.9353 52.744 31.355C51.052 31.8635 50.5859 32.8056 51.5169 33.8341C52.0571 34.431 52.5589 34.6014 53.298 34.4389C54.0796 34.2673 54.9912 34.6431 57.0875 36.0009C58.6055 36.9842 60.1928 37.7928 60.6145 37.7975C61.0362 37.8019 62.6057 37.1725 64.1019 36.3981C65.5981 35.6236 67.128 35.0874 67.5017 35.2059C67.8759 35.3248 68.8889 36.3148 69.7537 37.4063C70.6186 38.4983 71.5076 39.3928 71.7299 39.3944C71.9523 39.3964 72.8912 38.549 73.8162 37.5118C75.3949 35.7413 75.5324 35.6704 76.0619 36.3501C76.3723 36.7484 76.7401 37.9969 76.8792 39.1245C77.3734 43.1267 77.9422 45.3233 78.7158 46.2158L79.4994 47.1199L79.3769 41.5711ZM83.7081 59.3534C83.4148 54.5434 82.8917 52.6639 81.4415 51.2137L80.3202 50.0924L68.4985 50.1412C60.3446 50.1749 55.2932 50.3782 52.218 50.7963L47.7592 51.4032V52.5125C47.7592 55.2798 49.9914 57.2329 53.1344 57.2159C54.8299 57.2068 55.4054 56.9686 57.4394 55.4324C58.7311 54.4574 60.0105 53.6595 60.2832 53.6595C60.5555 53.6595 62.1741 54.2219 63.88 54.9092C68.2694 56.6781 70.1806 56.8013 72.3153 55.4538C74.5055 54.0713 77.0262 53.1899 77.9517 53.4835C78.8173 53.7586 79.3527 54.7344 81.0392 59.1112C81.8172 61.1298 82.6154 62.5514 83.1231 62.8233C83.938 63.2593 83.944 63.2224 83.7081 59.3534ZM90.9905 67.8002C90.4285 66.4891 89.9168 65.9362 88.9557 65.6013C88.1234 65.3112 84.7279 65.1847 79.3083 65.2422C65.8958 65.3845 44.0007 65.767 43.9186 65.8601C43.8774 65.9077 43.7882 66.6151 43.7205 67.4324C43.5905 69.0051 43.5132 69.0665 39.2378 70.9824C38.1534 71.4683 37.6525 71.9435 37.6525 72.4857C37.6525 73.7802 40.5121 73.7719 43.3126 72.4691C46.5341 70.9705 47.7168 71.0997 52.2307 73.4445C55.4617 75.123 56.4521 75.4567 58.1758 75.4488C61.3846 75.4341 63.0064 74.9014 66.654 72.6649C70.8465 70.0938 71.829 70.0356 75.8994 72.1187C79.8141 74.1218 81.906 74.1797 85.0648 72.3724C86.2895 71.6717 87.5542 71.0985 87.8757 71.0985C88.9224 71.0985 89.6965 72.4263 90.6469 75.8519C91.3104 78.2434 91.7776 79.2556 92.2616 79.3488C92.8498 79.4621 92.9421 79.1213 92.9421 76.8328C92.9421 74.0152 92.218 70.6634 90.9905 67.8002ZM33.1084 91.2287C33.7382 90.3607 33.8872 89.5066 33.8872 86.7699C33.8872 84.9083 33.7537 83.4014 33.59 83.4208C33.4263 83.4406 32.743 83.6162 32.0716 83.8112C29.3408 84.6043 28.7348 86.7144 28.7348 95.4331C28.7348 102.029 29.1993 104.788 30.3098 104.788C31.0419 104.788 31.3926 103.183 31.8687 97.6534C32.2289 93.4692 32.4992 92.0686 33.1084 91.2287ZM56.4787 93.2941C55.812 91.9731 54.9151 90.5411 54.4855 90.1114C53.4233 89.0492 52.9187 89.1281 48.3537 91.0726C42.9896 93.3575 42.451 93.4316 39.6187 92.2778C38.3191 91.7487 36.6767 91.3147 35.968 91.3139L34.6799 91.312V96.0447C34.6799 98.9427 34.8424 100.878 35.0988 101.036C36.5134 101.911 44.7719 101.961 65.3964 101.222C86.0212 100.484 93.107 100.005 95.2009 99.2087C96.6039 98.6756 96.3756 96.7724 94.4918 93.2937C93.1052 90.7331 92.5458 89.6846 91.8598 89.5939C91.3785 89.5303 90.835 89.9381 89.8998 90.6259C88.8483 91.3996 87.5419 92.5117 86.997 93.0971C86.452 93.6825 85.5131 94.4181 84.9102 94.732C83.8282 95.2948 83.7791 95.2663 81.0919 92.5145C77.3187 88.6501 76.9331 88.6775 72.1936 93.1454C65.3999 99.5507 64.0215 100.387 61.7976 99.45C60.1892 98.7727 57.917 96.1426 56.4787 93.2941Z" fill="black"/>
</svg>
